<?xml version="1.0" standalone="no"?>
<!DOCTYPE svg PUBLIC "-//W3C//DTD SVG 20010904//EN"
 "http://www.w3.org/TR/2001/REC-SVG-20010904/DTD/svg10.dtd">
<svg version="1.0" xmlns="http://www.w3.org/2000/svg"
 width="200.000000pt" height="200.000000pt" viewBox="0 0 200.000000 200.000000"
 preserveAspectRatio="xMidYMid meet">
<metadata>
Created by potrace 1.16, written by Peter Selinger 2001-2019
</metadata>
<g transform="translate(0.000000,200.000000) scale(0.100000,-0.100000)"
fill="#000000" stroke="none">
<path d="M502 1693 c-7 -3 -19 -18 -27 -33 -13 -24 -15 -101 -15 -475 0 -457
1 -473 39 -502 28 -21 81 -15 130 16 68 42 297 171 305 171 3 0 6 -64 6 -143
0 -136 1 -145 23 -164 21 -19 414 -245 450 -259 17 -6 133 53 123 63 -3 3
-110 65 -238 138 l-233 133 -3 154 -2 153 227 129 c126 71 234 134 241 139 10
8 0 18 -40 43 -29 19 -56 34 -59 34 -4 0 -86 -45 -183 -100 -97 -55 -178 -100
-181 -100 -3 0 -5 71 -5 158 0 111 -4 163 -12 175 -7 9 -116 75 -242 147 -223
127 -259 141 -304 123z m316 -268 l122 -70 0 -170 0 -170 -127 -73 c-71 -39
-152 -86 -180 -102 l-53 -30 0 375 0 375 58 -33 c31 -17 112 -63 180 -102z"/>
</g>
</svg>
